<svg xmlns="http://www.w3.org/2000/svg" version="1.1" width="256" height="256" viewBox="0 0 256 256" xml:space="preserve">
  <g transform="translate(1.4066 1.4066) scale(2.81 2.81)" fill="#E26B99">
    <path d="M75.546 78.738H14.455C6.484 78.738 0 72.254 0 64.283V25.716c0-7.97 6.485-14.455 14.455-14.455h61.091c7.97 0 14.454 6.485 14.454 14.455v38.567c0 7.971-6.484 14.455-14.454 14.455zM14.455 15.488c-5.64 0-10.228 4.588-10.228 10.228v38.567c0 5.64 4.588 10.229 10.228 10.229h61.091c5.64 0 10.228-4.589 10.228-10.229V25.716c0-5.64-4.588-10.228-10.228-10.228H14.455z"/>
    <path d="M11.044 25.917c10.804 10.528 21.608 21.055 32.412 31.583 2.014 1.962 5.105-1.122 3.088-3.088C35.74 43.885 24.936 33.357 14.132 22.83c-2.014-1.963-5.105 1.122-3.088 3.087z"/>
    <path d="M46.544 57.5c10.804-10.527 21.608-21.055 32.412-31.582 2.016-1.965-1.073-5.051-3.088-3.088-10.804 10.527-21.608 21.055-32.412 31.582-2.016 1.965 1.073 5.051 3.088 3.088z"/>
    <path d="M78.837 64.952c-7.189-6.818-14.379-13.635-21.568-20.453-2.039-1.933-5.132 1.149-3.088 3.088 7.189 6.818 14.379 13.635 21.568 20.453 2.039 1.933 5.132-1.149 3.088-3.088z"/>
    <path d="M14.446 68.039c7.189-6.818 14.379-13.635 21.568-20.453 2.043-1.938-1.048-5.022-3.088-3.088-7.189 6.818-14.379 13.635-21.568 20.453-2.043 1.938 1.048 5.022 3.088 3.088z"/>
  </g>
</svg>
